REM DIRINDEX 1\2\4\8,1\2\4\9,1\2\4\10,1\2\5\11,1\2\5\12,1\2\5\13,1\2\5\14,1\2\5\15,1\3\6\16,1\3\6\17,1\3\6\18,1\3\7\19,1\3\7\20,1\3\7\21,1\3\7\22,1\3\7\23
REM DIRNAME "folder01","folder02","folder03","folder04","folder05","folder06","folder07","folder08","folder09","folder10","folder11","folder12","folder13","folder14","folder15","folder16","folder17","folder18","folder19","folder20","folder21","folder22","folder23"
TITLE ""
FILE "LR_black_phrase_B05.mp3" MP3
  TRACK 01 AUDIO
    TITLE "0:"
    INDEX 01 00:00:00
  TRACK 02 AUDIO
    TITLE "19:cjc171_13101"
    INDEX 01 00:00:14
  TRACK 03 AUDIO
    TITLE "0:"
    INDEX 01 00:01:41
  TRACK 04 AUDIO
    TITLE "20:cjc171_13102"
    INDEX 01 00:02:07
  TRACK 05 AUDIO
    TITLE "0:"
    INDEX 01 00:04:53
  TRACK 06 AUDIO
    TITLE "21:cjc171_13103"
    INDEX 01 00:05:51
  TRACK 07 AUDIO
    TITLE "0:"
    INDEX 01 00:08:39
  TRACK 08 AUDIO
    TITLE "22:cjc171_13104"
    INDEX 01 00:09:05
  TRACK 09 AUDIO
    TITLE "0:"
    INDEX 01 00:11:75
  TRACK 10 AUDIO
    TITLE "23:cjc171_13105"
    INDEX 01 00:12:29
  TRACK 11 AUDIO
    TITLE "0:"
    INDEX 01 00:15:26
  TRACK 12 AUDIO
    TITLE "19:cjc171_13106"
    INDEX 01 00:16:29
  TRACK 13 AUDIO
    TITLE "0:"
    INDEX 01 00:17:56
  TRACK 14 AUDIO
    TITLE "20:cjc171_13107"
    INDEX 01 00:18:20
  TRACK 15 AUDIO
    TITLE "0:"
    INDEX 01 00:20:29
  TRACK 16 AUDIO
    TITLE "21:cjc171_13108"
    INDEX 01 00:21:26
  TRACK 17 AUDIO
    TITLE "0:"
    INDEX 01 00:23:58
  TRACK 18 AUDIO
    TITLE "22:cjc171_13109"
    INDEX 01 00:24:23
  TRACK 19 AUDIO
    TITLE "0:"
    INDEX 01 00:27:07
  TRACK 20 AUDIO
    TITLE "23:cjc171_13110"
    INDEX 01 00:27:37
  TRACK 21 AUDIO
    TITLE "0:"
    INDEX 01 00:30:21
  TRACK 22 AUDIO
    TITLE "19:cjc171_13111"
    INDEX 01 00:31:27
  TRACK 23 AUDIO
    TITLE "0:"
    INDEX 01 00:33:08
  TRACK 24 AUDIO
    TITLE "20:cjc171_13112"
    INDEX 01 00:33:47
  TRACK 25 AUDIO
    TITLE "0:"
    INDEX 01 00:35:36
  TRACK 26 AUDIO
    TITLE "21:cjc171_13113"
    INDEX 01 00:36:36
  TRACK 27 AUDIO
    TITLE "0:"
    INDEX 01 00:38:01
  TRACK 28 AUDIO
    TITLE "22:cjc171_13114"
    INDEX 01 00:38:40
  TRACK 29 AUDIO
    TITLE "0:"
    INDEX 01 00:40:39
  TRACK 30 AUDIO
    TITLE "23:cjc171_13115"
    INDEX 01 00:40:67
  TRACK 31 AUDIO
    TITLE "0:"
    INDEX 01 00:42:66
  TRACK 32 AUDIO
    TITLE "19:cjc171_13116"
    INDEX 01 00:43:65
  TRACK 33 AUDIO
    TITLE "0:"
    INDEX 01 00:45:13
  TRACK 34 AUDIO
    TITLE "20:cjc171_13117"
    INDEX 01 00:45:48
  TRACK 35 AUDIO
    TITLE "0:"
    INDEX 01 00:48:29
  TRACK 36 AUDIO
    TITLE "21:cjc171_13118"
    INDEX 01 00:49:28
  TRACK 37 AUDIO
    TITLE "0:"
    INDEX 01 00:52:31
  TRACK 38 AUDIO
    TITLE "22:cjc171_13119"
    INDEX 01 00:52:66
  TRACK 39 AUDIO
    TITLE "0:"
    INDEX 01 00:55:35
  TRACK 40 AUDIO
    TITLE "23:cjc171_13120"
    INDEX 01 00:55:54
  TRACK 41 AUDIO
    TITLE "0:"
    INDEX 01 00:58:23
  TRACK 42 AUDIO
    TITLE "19:cjc171_13121"
    INDEX 01 00:59:19
  TRACK 43 AUDIO
    TITLE "0:"
    INDEX 01 01:00:54
  TRACK 44 AUDIO
    TITLE "20:cjc171_13122"
    INDEX 01 01:01:18
  TRACK 45 AUDIO
    TITLE "0:"
    INDEX 01 01:04:10
  TRACK 46 AUDIO
    TITLE "21:cjc171_13123"
    INDEX 01 01:05:12
  TRACK 47 AUDIO
    TITLE "0:"
    INDEX 01 01:07:24
  TRACK 48 AUDIO
    TITLE "22:cjc171_13124"
    INDEX 01 01:07:65
  TRACK 49 AUDIO
    TITLE "0:"
    INDEX 01 01:10:19
  TRACK 50 AUDIO
    TITLE "23:cjc171_13125"
    INDEX 01 01:10:44
  TRACK 51 AUDIO
    TITLE "0:"
    INDEX 01 01:12:72
  TRACK 52 AUDIO
    TITLE "19:cjc171_13126"
    INDEX 01 01:13:70
  TRACK 53 AUDIO
    TITLE "0:"
    INDEX 01 01:14:67
  TRACK 54 AUDIO
    TITLE "20:cjc171_13127"
    INDEX 01 01:15:39
  TRACK 55 AUDIO
    TITLE "0:"
    INDEX 01 01:18:03
  TRACK 56 AUDIO
    TITLE "21:cjc171_13128"
    INDEX 01 01:19:02
  TRACK 57 AUDIO
    TITLE "0:"
    INDEX 01 01:21:01
  TRACK 58 AUDIO
    TITLE "22:cjc171_13129"
    INDEX 01 01:21:34
  TRACK 59 AUDIO
    TITLE "0:"
    INDEX 01 01:24:09
  TRACK 60 AUDIO
    TITLE "23:cjc171_13130"
    INDEX 01 01:24:33
  TRACK 61 AUDIO
    TITLE "0:"
    INDEX 01 01:26:75
  TRACK 62 AUDIO
    TITLE "19:cjc171_13131"
    INDEX 01 01:28:09
  TRACK 63 AUDIO
    TITLE "0:"
    INDEX 01 01:29:30
  TRACK 64 AUDIO
    TITLE "20:cjc171_13132"
    INDEX 01 01:29:69
  TRACK 65 AUDIO
    TITLE "0:"
    INDEX 01 01:31:31
  TRACK 66 AUDIO
    TITLE "21:cjc171_13133"
    INDEX 01 01:32:30
  TRACK 67 AUDIO
    TITLE "0:"
    INDEX 01 01:33:69
  TRACK 68 AUDIO
    TITLE "22:cjc171_13134"
    INDEX 01 01:34:35
  TRACK 69 AUDIO
    TITLE "0:"
    INDEX 01 01:36:51
  TRACK 70 AUDIO
    TITLE "23:cjc171_13135"
    INDEX 01 01:37:04
  TRACK 71 AUDIO
    TITLE "0:"
    INDEX 01 01:39:22
  TRACK 72 AUDIO
    TITLE "19:cjc171_13136"
    INDEX 01 01:40:24
  TRACK 73 AUDIO
    TITLE "0:"
    INDEX 01 01:41:33
  TRACK 74 AUDIO
    TITLE "20:cjc171_13137"
    INDEX 01 01:41:72
  TRACK 75 AUDIO
    TITLE "0:"
    INDEX 01 01:44:57
  TRACK 76 AUDIO
    TITLE "21:cjc171_13138"
    INDEX 01 01:45:54
  TRACK 77 AUDIO
    TITLE "0:"
    INDEX 01 01:47:59
  TRACK 78 AUDIO
    TITLE "22:cjc171_13139"
    INDEX 01 01:48:25
  TRACK 79 AUDIO
    TITLE "0:"
    INDEX 01 01:50:52
  TRACK 80 AUDIO
    TITLE "23:cjc171_13140"
    INDEX 01 01:51:06
  TRACK 81 AUDIO
    TITLE "0:"
    INDEX 01 01:53:34
  TRACK 82 AUDIO
    TITLE "19:cjc171_13141"
    INDEX 01 01:54:40
  TRACK 83 AUDIO
    TITLE "0:"
    INDEX 01 01:55:57
  TRACK 84 AUDIO
    TITLE "20:cjc171_13142"
    INDEX 01 01:56:19
  TRACK 85 AUDIO
    TITLE "0:"
    INDEX 01 01:58:67
  TRACK 86 AUDIO
    TITLE "21:cjc171_13143"
    INDEX 01 01:59:68
  TRACK 87 AUDIO
    TITLE "0:"
    INDEX 01 02:02:29
  TRACK 88 AUDIO
    TITLE "22:cjc171_13144"
    INDEX 01 02:02:70
  TRACK 89 AUDIO
    TITLE "0:"
    INDEX 01 02:05:57
  TRACK 90 AUDIO
    TITLE "23:cjc171_13145"
    INDEX 01 02:06:11
  TRACK 91 AUDIO
    TITLE "0:"
    INDEX 01 02:08:75
  TRACK 92 AUDIO
    TITLE "19:cjc171_13146"
    INDEX 01 02:09:74
  TRACK 93 AUDIO
    TITLE "0:"
    INDEX 01 02:11:30
  TRACK 94 AUDIO
    TITLE "20:cjc171_13147"
    INDEX 01 02:11:60
  TRACK 95 AUDIO
    TITLE "0:"
    INDEX 01 02:14:05
  TRACK 96 AUDIO
    TITLE "21:cjc171_13148"
    INDEX 01 02:14:74
  TRACK 97 AUDIO
    TITLE "0:"
    INDEX 01 02:16:57
  TRACK 98 AUDIO
    TITLE "22:cjc171_13149"
    INDEX 01 02:17:17
  TRACK 99 AUDIO
    TITLE "0:"
    INDEX 01 02:19:24
  TRACK 100 AUDIO
    TITLE "23:cjc171_13150"
    INDEX 01 02:19:41
  TRACK 101 AUDIO
    TITLE "0:"
    INDEX 01 02:21:48
  TRACK 102 AUDIO
    TITLE "19:cjc171_13151"
    INDEX 01 02:22:42
  TRACK 103 AUDIO
    TITLE "0:"
    INDEX 01 02:23:73
  TRACK 104 AUDIO
    TITLE "20:cjc171_13152"
    INDEX 01 02:24:33
  TRACK 105 AUDIO
    TITLE "0:"
    INDEX 01 02:26:02
  TRACK 106 AUDIO
    TITLE "21:cjc171_13153"
    INDEX 01 02:26:75
  TRACK 107 AUDIO
    TITLE "0:"
    INDEX 01 02:29:48
  TRACK 108 AUDIO
    TITLE "22:cjc171_13154"
    INDEX 01 02:30:08
  TRACK 109 AUDIO
    TITLE "0:"
    INDEX 01 02:33:22
  TRACK 110 AUDIO
    TITLE "23:cjc171_13155"
    INDEX 01 02:33:45
  TRACK 111 AUDIO
    TITLE "0:"
    INDEX 01 02:36:61
  TRACK 112 AUDIO
    TITLE "19:cjc171_13156"
    INDEX 01 02:37:57
  TRACK 113 AUDIO
    TITLE "0:"
    INDEX 01 02:39:09
  TRACK 114 AUDIO
    TITLE "20:cjc171_13157"
    INDEX 01 02:39:42
  TRACK 115 AUDIO
    TITLE "0:"
    INDEX 01 02:40:53
  TRACK 116 AUDIO
    TITLE "21:cjc171_13158"
    INDEX 01 02:41:55
  TRACK 117 AUDIO
    TITLE "0:"
    INDEX 01 02:43:24
  TRACK 118 AUDIO
    TITLE "22:cjc171_13159"
    INDEX 01 02:43:60
  TRACK 119 AUDIO
    TITLE "0:"
    INDEX 01 02:46:07
  TRACK 120 AUDIO
    TITLE "23:cjc171_13160"
    INDEX 01 02:46:27
  TRACK 121 AUDIO
    TITLE "0:"
    INDEX 01 02:48:51
  TRACK 122 AUDIO
    TITLE "19:cjc171_13161"
    INDEX 01 02:49:50
  TRACK 123 AUDIO
    TITLE "0:"
    INDEX 01 02:50:71
  TRACK 124 AUDIO
    TITLE "20:cjc171_13162"
    INDEX 01 02:51:36
  TRACK 125 AUDIO
    TITLE "0:"
    INDEX 01 02:53:29
  TRACK 126 AUDIO
    TITLE "21:cjc171_13163"
    INDEX 01 02:54:30
  TRACK 127 AUDIO
    TITLE "0:"
    INDEX 01 02:57:22
  TRACK 128 AUDIO
    TITLE "22:cjc171_13164"
    INDEX 01 02:57:60
  TRACK 129 AUDIO
    TITLE "0:"
    INDEX 01 03:01:07
  TRACK 130 AUDIO
    TITLE "23:cjc171_13165"
    INDEX 01 03:01:34
  TRACK 131 AUDIO
    TITLE "0:"
    INDEX 01 03:04:56
  TRACK 132 AUDIO
    TITLE "19:cjc171_13166"
    INDEX 01 03:05:59
  TRACK 133 AUDIO
    TITLE "0:"
    INDEX 01 03:07:19
  TRACK 134 AUDIO
    TITLE "20:cjc171_13167"
    INDEX 01 03:07:66
  TRACK 135 AUDIO
    TITLE "0:"
    INDEX 01 03:09:20
  TRACK 136 AUDIO
    TITLE "21:cjc171_13168"
    INDEX 01 03:10:21
  TRACK 137 AUDIO
    TITLE "0:"
    INDEX 01 03:12:55
  TRACK 138 AUDIO
    TITLE "22:cjc171_13169"
    INDEX 01 03:13:20
  TRACK 139 AUDIO
    TITLE "0:"
    INDEX 01 03:15:71
  TRACK 140 AUDIO
    TITLE "23:cjc171_13170"
    INDEX 01 03:16:26
  TRACK 141 AUDIO
    TITLE "0:"
    INDEX 01 03:19:01
  TRACK 142 AUDIO
    TITLE "19:cjc171_13171"
    INDEX 01 03:20:04
  TRACK 143 AUDIO
    TITLE "0:"
    INDEX 01 03:21:43
  TRACK 144 AUDIO
    TITLE "20:cjc171_13172"
    INDEX 01 03:22:05
  TRACK 145 AUDIO
    TITLE "0:"
    INDEX 01 03:23:34
  TRACK 146 AUDIO
    TITLE "21:cjc171_13173"
    INDEX 01 03:24:31
  TRACK 147 AUDIO
    TITLE "0:"
    INDEX 01 03:26:59
  TRACK 148 AUDIO
    TITLE "22:cjc171_13174"
    INDEX 01 03:27:22
  TRACK 149 AUDIO
    TITLE "0:"
    INDEX 01 03:29:75
  TRACK 150 AUDIO
    TITLE "23:cjc171_13175"
    INDEX 01 03:30:30
  TRACK 151 AUDIO
    TITLE "0:"
    INDEX 01 03:33:09
  TRACK 152 AUDIO
    TITLE "19:cjc171_13176"
    INDEX 01 03:34:06
  TRACK 153 AUDIO
    TITLE "0:"
    INDEX 01 03:35:21
  TRACK 154 AUDIO
    TITLE "20:cjc171_13177"
    INDEX 01 03:35:54
  TRACK 155 AUDIO
    TITLE "0:"
    INDEX 01 03:39:05
  TRACK 156 AUDIO
    TITLE "21:cjc171_13178"
    INDEX 01 03:40:07
  TRACK 157 AUDIO
    TITLE "0:"
    INDEX 01 03:41:53
  TRACK 158 AUDIO
    TITLE "22:cjc171_13179"
    INDEX 01 03:42:11
  TRACK 159 AUDIO
    TITLE "0:"
    INDEX 01 03:44:22
  TRACK 160 AUDIO
    TITLE "23:cjc171_13180"
    INDEX 01 03:44:42
  TRACK 161 AUDIO
    TITLE "0:"
    INDEX 01 03:46:52
  TRACK 162 AUDIO
    TITLE "19:cjc171_13181"
    INDEX 01 03:47:46
  TRACK 163 AUDIO
    TITLE "0:"
    INDEX 01 03:48:51
  TRACK 164 AUDIO
    TITLE "20:cjc171_13182"
    INDEX 01 03:49:15
  TRACK 165 AUDIO
    TITLE "0:"
    INDEX 01 03:51:20
  TRACK 166 AUDIO
    TITLE "21:cjc171_13183"
    INDEX 01 03:52:20
  TRACK 167 AUDIO
    TITLE "0:"
    INDEX 01 03:54:62
  TRACK 168 AUDIO
    TITLE "22:cjc171_13184"
    INDEX 01 03:55:20
  TRACK 169 AUDIO
    TITLE "0:"
    INDEX 01 03:57:38
  TRACK 170 AUDIO
    TITLE "23:cjc171_13185"
    INDEX 01 03:57:58
  TRACK 171 AUDIO
    TITLE "0:"
    INDEX 01 04:00:01
  TRACK 172 AUDIO
    TITLE "19:cjc171_13186"
    INDEX 01 04:00:70
  TRACK 173 AUDIO
    TITLE "0:"
    INDEX 01 04:02:18
  TRACK 174 AUDIO
    TITLE "20:cjc171_13187"
    INDEX 01 04:02:55
  TRACK 175 AUDIO
    TITLE "0:"
    INDEX 01 04:04:72
  TRACK 176 AUDIO
    TITLE "21:cjc171_13188"
    INDEX 01 04:05:69
  TRACK 177 AUDIO
    TITLE "0:"
    INDEX 01 04:08:09
  TRACK 178 AUDIO
    TITLE "22:cjc171_13189"
    INDEX 01 04:08:42
  TRACK 179 AUDIO
    TITLE "0:"
    INDEX 01 04:11:03
  TRACK 180 AUDIO
    TITLE "23:cjc171_13190"
    INDEX 01 04:11:23
  TRACK 181 AUDIO
    TITLE "0:"
    INDEX 01 04:13:59
  TRACK 182 AUDIO
    TITLE "19:cjc171_13191"
    INDEX 01 04:14:56
  TRACK 183 AUDIO
    TITLE "0:"
    INDEX 01 04:16:01
  TRACK 184 AUDIO
    TITLE "20:cjc171_13192"
    INDEX 01 04:16:40
  TRACK 185 AUDIO
    TITLE "0:"
    INDEX 01 04:18:37
  TRACK 186 AUDIO
    TITLE "21:cjc171_13193"
    INDEX 01 04:19:36
  TRACK 187 AUDIO
    TITLE "0:"
    INDEX 01 04:23:75
  TRACK 188 AUDIO
    TITLE "22:cjc171_13194"
    INDEX 01 04:24:39
  TRACK 189 AUDIO
    TITLE "0:"
    INDEX 01 04:28:13
  TRACK 190 AUDIO
    TITLE "23:cjc171_13195"
    INDEX 01 04:28:43
  TRACK 191 AUDIO
    TITLE "0:"
    INDEX 01 04:32:15
  TRACK 192 AUDIO
    TITLE "19:cjc171_13196"
    INDEX 01 04:33:19
  TRACK 193 AUDIO
    TITLE "0:"
    INDEX 01 04:34:42
  TRACK 194 AUDIO
    TITLE "20:cjc171_13197"
    INDEX 01 04:35:08
  TRACK 195 AUDIO
    TITLE "0:"
    INDEX 01 04:37:14
  TRACK 196 AUDIO
    TITLE "21:cjc171_13198"
    INDEX 01 04:38:14
  TRACK 197 AUDIO
    TITLE "0:"
    INDEX 01 04:40:36
  TRACK 198 AUDIO
    TITLE "22:cjc171_13199"
    INDEX 01 04:40:75
  TRACK 199 AUDIO
    TITLE "0:"
    INDEX 01 04:43:66
  TRACK 200 AUDIO
    TITLE "23:cjc171_13200"
    INDEX 01 04:44:22
  TRACK 201 AUDIO
    TITLE "0:"
    INDEX 01 04:47:15
  TRACK 202 AUDIO
    TITLE "19:cjc171_13201"
    INDEX 01 04:48:20
  TRACK 203 AUDIO
    TITLE "0:"
    INDEX 01 04:49:23
  TRACK 204 AUDIO
    TITLE "20:cjc171_13202"
    INDEX 01 04:49:63
  TRACK 205 AUDIO
    TITLE "0:"
    INDEX 01 04:51:28
  TRACK 206 AUDIO
    TITLE "21:cjc171_13203"
    INDEX 01 04:52:28
  TRACK 207 AUDIO
    TITLE "0:"
    INDEX 01 04:54:27
  TRACK 208 AUDIO
    TITLE "22:cjc171_13204"
    INDEX 01 04:54:64
  TRACK 209 AUDIO
    TITLE "0:"
    INDEX 01 04:57:19
  TRACK 210 AUDIO
    TITLE "23:cjc171_13205"
    INDEX 01 04:57:50
  TRACK 211 AUDIO
    TITLE "0:"
    INDEX 01 05:00:04
  TRACK 212 AUDIO
    TITLE "19:cjc171_13206"
    INDEX 01 05:01:07
  TRACK 213 AUDIO
    TITLE "0:"
    INDEX 01 05:02:10
  TRACK 214 AUDIO
    TITLE "20:cjc171_13207"
    INDEX 01 05:02:44
  TRACK 215 AUDIO
    TITLE "0:"
    INDEX 01 05:03:53
  TRACK 216 AUDIO
    TITLE "21:cjc171_13208"
    INDEX 01 05:04:54
  TRACK 217 AUDIO
    TITLE "0:"
    INDEX 01 05:06:65
  TRACK 218 AUDIO
    TITLE "22:cjc171_13209"
    INDEX 01 05:07:25
  TRACK 219 AUDIO
    TITLE "0:"
    INDEX 01 05:09:44
  TRACK 220 AUDIO
    TITLE "23:cjc171_13210"
    INDEX 01 05:09:61
  TRACK 221 AUDIO
    TITLE "0:"
    INDEX 01 05:12:05
  TRACK 222 AUDIO
    TITLE "19:cjc171_13211"
    INDEX 01 05:12:75
  TRACK 223 AUDIO
    TITLE "0:"
    INDEX 01 05:14:18
  TRACK 224 AUDIO
    TITLE "20:cjc171_13212"
    INDEX 01 05:14:63
  TRACK 225 AUDIO
    TITLE "0:"
    INDEX 01 05:17:30
  TRACK 226 AUDIO
    TITLE "21:cjc171_13213"
    INDEX 01 05:18:29
  TRACK 227 AUDIO
    TITLE "0:"
    INDEX 01 05:20:42
  TRACK 228 AUDIO
    TITLE "22:cjc171_13214"
    INDEX 01 05:20:75
  TRACK 229 AUDIO
    TITLE "0:"
    INDEX 01 05:23:11
  TRACK 230 AUDIO
    TITLE "23:cjc171_13215"
    INDEX 01 05:23:38
  TRACK 231 AUDIO
    TITLE "0:"
    INDEX 01 05:25:49
  TRACK 232 AUDIO
    TITLE "19:cjc171_13216"
    INDEX 01 05:26:50
  TRACK 233 AUDIO
    TITLE "0:"
    INDEX 01 05:27:71
  TRACK 234 AUDIO
    TITLE "20:cjc171_13217"
    INDEX 01 05:28:31
  TRACK 235 AUDIO
    TITLE "0:"
    INDEX 01 05:29:23
  TRACK 236 AUDIO
    TITLE "21:cjc171_13218"
    INDEX 01 05:30:22
  TRACK 237 AUDIO
    TITLE "0:"
    INDEX 01 05:31:67
  TRACK 238 AUDIO
    TITLE "22:cjc171_13219"
    INDEX 01 05:32:27
  TRACK 239 AUDIO
    TITLE "0:"
    INDEX 01 05:34:36
  TRACK 240 AUDIO
    TITLE "23:cjc171_13220"
    INDEX 01 05:34:61
  TRACK 241 AUDIO
    TITLE "0:"
    INDEX 01 05:36:72
  TRACK 242 AUDIO
    TITLE "19:cjc171_13221"
    INDEX 01 05:38:02
  TRACK 243 AUDIO
    TITLE "0:"
    INDEX 01 05:39:15
  TRACK 244 AUDIO
    TITLE "20:cjc171_13222"
    INDEX 01 05:39:57
  TRACK 245 AUDIO
    TITLE "0:"
    INDEX 01 05:43:31
  TRACK 246 AUDIO
    TITLE "21:cjc171_13223"
    INDEX 01 05:44:30
  TRACK 247 AUDIO
    TITLE "0:"
    INDEX 01 05:46:39
  TRACK 248 AUDIO
    TITLE "22:cjc171_13224"
    INDEX 01 05:47:05
  TRACK 249 AUDIO
    TITLE "0:"
    INDEX 01 05:49:37
  TRACK 250 AUDIO
    TITLE "23:cjc171_13225"
    INDEX 01 05:49:67
  TRACK 251 AUDIO
    TITLE "0:"
    INDEX 01 05:52:24
  TRACK 252 AUDIO
    TITLE "19:cjc171_13226"
    INDEX 01 05:53:29
  TRACK 253 AUDIO
    TITLE "0:"
    INDEX 01 05:54:39
  TRACK 254 AUDIO
    TITLE "20:cjc171_13227"
    INDEX 01 05:55:03
  TRACK 255 AUDIO
    TITLE "0:"
    INDEX 01 05:56:26
  TRACK 256 AUDIO
    TITLE "21:cjc171_13228"
    INDEX 01 05:57:25
  TRACK 257 AUDIO
    TITLE "0:"
    INDEX 01 05:59:08
  TRACK 258 AUDIO
    TITLE "22:cjc171_13229"
    INDEX 01 05:59:50
  TRACK 259 AUDIO
    TITLE "0:"
    INDEX 01 06:01:39
  TRACK 260 AUDIO
    TITLE "23:cjc171_13230"
    INDEX 01 06:01:68
  TRACK 261 AUDIO
    TITLE "0:"
    INDEX 01 06:03:59
  TRACK 262 AUDIO
    TITLE "19:cjc171_13231"
    INDEX 01 06:04:62
  TRACK 263 AUDIO
    TITLE "0:"
    INDEX 01 06:06:14
  TRACK 264 AUDIO
    TITLE "20:cjc171_13232"
    INDEX 01 06:06:55
  TRACK 265 AUDIO
    TITLE "0:"
    INDEX 01 06:08:17
  TRACK 266 AUDIO
    TITLE "21:cjc171_13233"
    INDEX 01 06:09:17
  TRACK 267 AUDIO
    TITLE "0:"
    INDEX 01 06:12:21
  TRACK 268 AUDIO
    TITLE "22:cjc171_13234"
    INDEX 01 06:12:62
  TRACK 269 AUDIO
    TITLE "0:"
    INDEX 01 06:15:62
  TRACK 270 AUDIO
    TITLE "23:cjc171_13235"
    INDEX 01 06:16:19
  TRACK 271 AUDIO
    TITLE "0:"
    INDEX 01 06:19:21
  TRACK 272 AUDIO
    TITLE "19:cjc171_13236"
    INDEX 01 06:20:20
  TRACK 273 AUDIO
    TITLE "0:"
    INDEX 01 06:21:33
  TRACK 274 AUDIO
    TITLE "20:cjc171_13237"
    INDEX 01 06:21:69
  TRACK 275 AUDIO
    TITLE "0:"
    INDEX 01 06:24:02
  TRACK 276 AUDIO
    TITLE "21:cjc171_13238"
    INDEX 01 06:25:02
  TRACK 277 AUDIO
    TITLE "0:"
    INDEX 01 06:27:16
  TRACK 278 AUDIO
    TITLE "22:cjc171_13239"
    INDEX 01 06:27:50
  TRACK 279 AUDIO
    TITLE "0:"
    INDEX 01 06:29:64
  TRACK 280 AUDIO
    TITLE "23:cjc171_13240"
    INDEX 01 06:30:09
  TRACK 281 AUDIO
    TITLE "0:"
    INDEX 01 06:32:24
  TRACK 282 AUDIO
    TITLE "19:cjc171_13241"
    INDEX 01 06:33:19
  TRACK 283 AUDIO
    TITLE "0:"
    INDEX 01 06:34:42
  TRACK 284 AUDIO
    TITLE "20:cjc171_13242"
    INDEX 01 06:35:04
  TRACK 285 AUDIO
    TITLE "0:"
    INDEX 01 06:37:58
  TRACK 286 AUDIO
    TITLE "21:cjc171_13243"
    INDEX 01 06:38:59
  TRACK 287 AUDIO
    TITLE "0:"
    INDEX 01 06:41:15
  TRACK 288 AUDIO
    TITLE "22:cjc171_13244"
    INDEX 01 06:41:50
  TRACK 289 AUDIO
    TITLE "0:"
    INDEX 01 06:43:49
  TRACK 290 AUDIO
    TITLE "23:cjc171_13245"
    INDEX 01 06:43:70
  TRACK 291 AUDIO
    TITLE "0:"
    INDEX 01 06:45:69
  TRACK 292 AUDIO
    TITLE "19:cjc171_13246"
    INDEX 01 06:46:65
  TRACK 293 AUDIO
    TITLE "0:"
    INDEX 01 06:48:03
  TRACK 294 AUDIO
    TITLE "20:cjc171_13247"
    INDEX 01 06:48:40
  TRACK 295 AUDIO
    TITLE "0:"
    INDEX 01 06:50:74
  TRACK 296 AUDIO
    TITLE "21:cjc171_13248"
    INDEX 01 06:51:74
  TRACK 297 AUDIO
    TITLE "0:"
    INDEX 01 06:53:39
  TRACK 298 AUDIO
    TITLE "22:cjc171_13249"
    INDEX 01 06:53:73
  TRACK 299 AUDIO
    TITLE "0:"
    INDEX 01 06:55:50
  TRACK 300 AUDIO
    TITLE "23:cjc171_13250"
    INDEX 01 06:55:70
  TRACK 301 AUDIO
    TITLE "0:"
    INDEX 01 06:57:47
